# AST/ASF file generated using VICON BodyLanguage
# -----------------------------------------------
:version 1.10
:name VICON
:units
  mass 1.0
  length 0.45
  angle deg
:documentation
   .ast/.asf automatically generated from VICON data using
   VICON BodyBuilder and BodyLanguage model FoxedUp or BRILLIANT.MOD
:root
   order TX TY TZ RX RY RZ
   axis XYZ
   position 0 0 0  
   orientation 0 0 0 
:bonedata
  begin
     id 1 
     name lhipjoint
     direction 0.558404 -0.748506 0.357664 
     length 2.4234 
     axis 0 0 0  XYZ
  end
  begin
     id 2 
     name lfemur
     direction 0.34202 -0.939693 0  
     length 7.14567  
     axis 0 0 20  XYZ
    dof rx ry rz
    limits (-160.0 20.0)
           (-70.0 70.0)
           (-60.0 70.0)
  end
  begin
     id 3 
     name ltibia
     direction 0.34202 -0.939693 0   
     length 8.13956   
     axis 0 0 20   XYZ
    dof rx
    limits (-10.0 170.0)
  end
  begin
     id 4 
     name lfoot
     direction 0.0791314 -0.217412 0.972867   
     length 2.00134   
     axis -90 7.62852e-016 20   XYZ
    dof rx rz
    limits (-45.0 90.0)
           (-70.0 20.0)
  end
  begin
     id 5 
     name ltoes
     direction 1.53547e-011 -4.21922e-011 1   
     length 1.00735   
     axis -90 7.62852e-016 20   XYZ
    dof rx
    limits (-90.0 20.0)
  end
  begin
     id 6 
     name rhipjoint
     direction -0.496392 -0.78327 0.374276   
     length 2.31584  
     axis 0 0 0  XYZ 
  end
  begin
     id 7 
     name rfemur
     direction -0.34202 -0.939693 0   
     length 7.47417   
     axis 0 0 -20   XYZ
    dof rx ry rz
    limits (-160.0 20.0)
           (-70.0 70.0)
           (-70.0 60.0)
  end
  begin
     id 8 
     name rtibia
     direction -0.34202 -0.939693 0   
     length 7.69071   
     axis 0 0 -20   XYZ
    dof rx
    limits (-10.0 170.0)
 end
 begin
     id 9 
     name rfoot
     direction -0.103069 -0.28318 0.953512   
     length 2.16135  
     axis -90 -7.62852e-016 -20   XYZ
    dof rx rz
    limits (-45.0 90.0)
           (-20.0 70.0)
  end
  begin
     id 10 
     name rtoes
     direction -1.53581e-011 -4.21904e-011 1   
     length 1.07867   
     axis -90 -7.62852e-016 -20   XYZ
    dof rx
    limits (-90.0 20.0)
  end
  begin
     id 11 
     name lowerback
     direction -0.0258961 0.994776 -0.0987407   
     length 2.19412   
     axis 0 0 0   XYZ
    dof rx ry rz
    limits (-20.0 45.0)
           (-30.0 30.0)
           (-30.0 30.0)
  end
  begin
     id 12 
     name upperback
     direction 0.0402454 0.999185 0.00320666   
     length 2.18445   
     axis 0 0 0   XYZ
    dof rx ry rz
    limits (-20.0 45.0)
           (-30.0 30.0)
           (-30.0 30.0)
  end
  begin
     id 13 
     name thorax
     direction 0.0519376 0.997415 0.0496558   
     length 2.21487   
     axis 0 0 0   XYZ
    dof rx ry rz
    limits (-20.0 45.0)
           (-30.0 30.0)
           (-30.0 30.0)
  end
  begin
     id 14 
     name lowerneck
     direction -0.0921276 0.983211 0.157506   
     length 1.61201   
     axis 0 0 0   XYZ
    dof rx ry rz
    limits (-20.0 45.0)
           (-30.0 30.0)
           (-30.0 30.0)
  end
  begin
     id 15 
     name upperneck
     direction 0.0820814 0.98162 -0.172292   
     length 1.65275   
     axis 0 0 0   XYZ
    dof rx ry rz
    limits (-20.0 45.0)
           (-30.0 30.0)
           (-30.0 30.0)
  end
  begin
     id 16
     name head
     direction 0.0336554 0.996413 -0.0776455  
     length 1.66415  
     axis 0 0 0   XYZ
    dof rx ry rz
    limits (-20.0 45.0)
           (-30.0 30.0)
           (-30.0 30.0)
  end
  begin
     id 17 
     name lclavicle
     direction 0.94696 0.284418 -0.149576  
     length 3.41447  
     axis 0 0 0   XYZ
    dof ry rz
    limits (-20.0 10.0)
           (0.0 20.0)
  end
  begin
     id 18 
     name lhumerus
     direction 1 -0.000130264 -9.81312e-005   
     length 5.19964   
     axis 180 -30 -90   XYZ
    dof rx ry rz
    limits (-60.0 90.0)
           (-90.0 90.0)
           (-90.0 90.0)
  end
  begin
     id 19
     name lradius
     direction 1 -4.48961e-011 1.43854e-026   
     length 3.32189   
     axis 180 -30 -90   XYZ
    dof rx
    limits (-10.0 170.0)
  end
  begin
     id 20
     name lwrist
     direction 1 -4.48958e-011 3.1502e-026   
     length 1.66095   
     axis -1.97692e-014 90 90   XYZ
    dof ry
    limits (-180.0 0.0)
 end
  begin
     id 21 
     name lhand
     direction 1 -4.48927e-011 6.3004e-026   
     length 0.645616   
     axis -4.02019e-014 90 90   XYZ
    dof rx rz
    limits (-90.0 90.0)
           (-45.0 45.0)
  end
  begin
     id 22 
     name lfingers
     direction 1 -4.4904e-011 1.26008e-025   
     length 0.520512   
     axis -8.04039e-014 90 90   XYZ
    dof rx
    limits (0.0 90.0)
  end
  begin
     id 23
     name lthumb
     direction 0.707107 -6.34947e-011 0.707107   
     length 0.747354   
     axis -90 45 2.85299e-015   XYZ
    dof rx rz
    limits (-45.0 45.0)
           (-45.0 45.0)
  end
  begin
     id 24 
     name rclavicle
     direction -0.909391 0.383475 -0.161107   
     length 3.25176  
     axis 0 0 0   XYZ 
    dof ry rz
    limits (-10.0 20.0)
           (-20.0 0.0)
  end
  begin
     id 25 
     name rhumerus
     direction -1 -4.48965e-011 -1.81384e-027  
     length 5.6595   
     axis 180 30 90   XYZ
    dof rx ry rz
    limits (-90.0 60.0)
           (-90.0 90.0)
           (-90.0 90.0)
  end
  begin
     id 26 
     name rradius
     direction -1 -4.48996e-011 -8.09397e-027   
     length 3.37604   
     axis 180 30 90   XYZ
    dof rx
    limits (-10.0 170.0)
  end
  begin
     id 27 
     name rwrist
     direction -1 -4.48927e-011 -1.56669e-026   
     length 1.68802   
     axis 1.21142e-014 -90 -90   XYZ
    dof ry
    limits (-180.0 0.0)
  end
  begin
     id 28
     name rhand
     direction -1 -4.48912e-011 -3.13339e-026   
     length 0.824702   
     axis 1.99937e-014 -90 -90   XYZ
    dof rx rz
    limits (-90.0 90.0)
           (-45.0 45.0)
  end
  begin
     id 29
     name rfingers
     direction -1 -4.49011e-011 -6.26677e-026   
     length 0.664896   
     axis 3.99874e-014 -90 -90   XYZ
    dof rx
    limits (0.0 90.0)
  end
  begin
     id 30
     name rthumb
     direction -0.707107 -6.34931e-011 0.707107   
     length 0.954662   
     axis -90 -45 -2.85299e-015   XYZ
    dof rx rz
    limits (-45.0 45.0)
           (-45.0 45.0)
  end
:hierarchy
  begin
    root lhipjoint rhipjoint lowerback
    lhipjoint lfemur
    lfemur ltibia
    ltibia lfoot
    lfoot ltoes
    rhipjoint rfemur
    rfemur rtibia
    rtibia rfoot
    rfoot rtoes
    lowerback upperback
    upperback thorax
    thorax lowerneck lclavicle rclavicle
    lowerneck upperneck
    upperneck head
    lclavicle lhumerus
    lhumerus lradius
    lradius lwrist
    lwrist lhand lthumb
    lhand lfingers
    rclavicle rhumerus
    rhumerus rradius
    rradius rwrist
    rwrist rhand rthumb
    rhand rfingers
  end

#!OML:ASF F:\VICON\USERDATA\INSTALL\rory3\rory3.ASF
:FULLY-SPECIFIED
:DEGREES
161
root 14.1024 17.8006 -41.3012 8.52198 -43.6763 -0.810538
lowerback 7.274 -1.36854 -8.00537
upperback 0.269815 -2.40578 2.31614
thorax -3.3761 -1.05844 7.18984
lowerneck -12.0248 -1.20214 -12.8677
upperneck 17.9163 -0.796651 8.48659
head 7.56333 -0.497083 4.88079
rclavicle -7.23079e-015 -9.39258e-015
rhumerus -38.164 -17.0181 -70.165
rradius 36.5564
rwrist -16.5046
rhand -10.9184 16.8682
rfingers 7.12502
rthumb 15.0991 -12.5611
lclavicle -7.23079e-015 -9.39258e-015
lhumerus -28.5205 21.2466 77.8463
lradius 30.8244
lwrist -7.93481
lhand -3.35071 31.3893
lfingers 7.12502
lthumb 22.3773 60.1133
rfemur -27.9628 8.81407 7.87527
rtibia 50.907
rfoot -14.7497 0.0502891
rtoes 13.9903
lfemur -18.0637 8.33833 -27.928
ltibia 39.862
lfoot -23.2519 14.973
ltoes -2.12933
162
root 14.1009 17.8051 -41.2795 8.92022 -44.0165 -1.39599
lowerback 7.17522 -1.35467 -7.44173
upperback 0.369817 -2.33453 2.21495
thorax -3.2544 -1.04149 6.74524
lowerneck -12.9226 -1.24483 -12.3029
upperneck 18.4338 -0.862114 8.41061
head 7.89875 -0.490967 4.77482
rclavicle -5.12864e-014 9.14409e-015
rhumerus -37.9801 -17.2841 -70.5262
rradius 36.7072
rwrist -16.4022
rhand -10.6939 17.0365
rfingers 7.12502
rthumb 15.3154 -12.3763
lclavicle -5.12864e-014 9.14409e-015
lhumerus -28.2705 21.0626 77.8498
lradius 30.9096
lwrist -7.516
lhand -2.76886 31.7429
lfingers 7.12502
lthumb 22.9358 60.3986
rfemur -28.019 8.87236 8.41917
rtibia 50.9445
rfoot -14.5725 -0.196912
rtoes 11.8146
lfemur -18.1661 8.45497 -27.4864
ltibia 40.0761
lfoot -23.537 14.8325
ltoes -0.770006
163
root 14.095 17.7998 -41.2629 9.05524 -44.2529 -1.44459
lowerback 7.16723 -1.35986 -7.5754
upperback 0.284377 -2.35186 2.26628
thorax -3.32931 -1.04136 6.88012
lowerneck -12.4007 -1.17809 -12.6789
upperneck 17.9632 -0.801361 8.73028
head 7.64389 -0.457835 4.93671
rclavicle -5.84178e-014 1.73937e-014
rhumerus -37.9897 -17.1168 -70.5666
rradius 36.9574
rwrist -16.4054
rhand -10.6361 17.077
rfingers 7.12502
rthumb 15.371 -12.3316
lclavicle -5.84178e-014 1.73937e-014
lhumerus -28.4398 21.1263 78.092
lradius 31.1372
lwrist -6.94419
lhand -2.51248 31.5049
lfingers 7.12502
lthumb 23.1818 60.1299
rfemur -28.211 8.6937 8.53276
rtibia 51.071
rfoot -14.4082 -0.403266
rtoes 10.7417
lfemur -18.3055 8.58159 -27.4914
ltibia 40.196
lfoot -23.7743 14.6382
ltoes -0.131968
164
root 14.0896 17.7948 -41.2483 9.10052 -44.5078 -1.35361
lowerback 7.13878 -1.34363 -7.81804
upperback 0.232933 -2.34891 2.26811
thorax -3.35848 -1.03281 7.02117
lowerneck -12.3534 -1.06583 -12.6797
upperneck 17.8542 -0.657714 8.78329
head 7.58223 -0.38298 4.96552
rclavicle 5.0864e-014 -6.95746e-016
rhumerus -37.9547 -17.0882 -70.6266
rradius 37.2496
rwrist -16.433
rhand -10.5212 17.0592
rfingers 7.12502
rthumb 15.4817 -12.3409
lclavicle 5.0864e-014 -6.95746e-016
lhumerus -28.5187 20.9411 78.4381
lradius 31.3814
lwrist -6.11911
lhand -2.97356 31.1685
lfingers 7.12502
lthumb 22.7393 59.8485
rfemur -28.4281 8.36958 8.55932
rtibia 51.2265
rfoot -14.2882 -0.495337
rtoes 9.50922
lfemur -18.4062 8.93322 -27.6033
ltibia 40.2624
lfoot -23.4435 14.6202
ltoes -2.24337
165
root 14.0809 17.792 -41.2313 8.92115 -44.8639 -1.08746
lowerback 7.05154 -1.22884 -8.13916
upperback 0.31425 -2.21606 2.17301
thorax -3.23973 -0.970847 7.08653
lowerneck -11.6546 -1.03 -13.3173
upperneck 17.0171 -0.717789 9.75525
head 7.19077 -0.363269 5.36997
rclavicle -2.17918e-014 -8.24956e-015
rhumerus -37.8475 -17.3558 -70.694
rradius 37.5086
rwrist -16.2827
rhand -10.5442 17.055
rfingers 7.12502
rthumb 15.4595 -12.3468
lclavicle -2.17918e-014 -8.24956e-015
lhumerus -28.1499 20.2669 78.9102
lradius 31.422
lwrist -5.00345
lhand -3.23388 31.1866
lfingers 7.12502
lthumb 22.4895 59.8971
rfemur -28.5404 8.04284 8.43596
rtibia 51.3865
rfoot -14.0764 -0.589444
rtoes 8.45093
lfemur -18.3507 9.36564 -27.8465
ltibia 40.2933
lfoot -23.7724 14.3052
ltoes -0.652913
166
root 14.0721 17.7867 -41.2075 8.90838 -45.2614 -1.05914
lowerback 7.17435 -1.1759 -8.36853
upperback 0.18207 -2.1765 2.21503
thorax -3.44536 -0.931996 7.26862
lowerneck -12.3472 -1.04861 -12.8017
upperneck 18.1102 -0.693562 9.13532
head 7.66767 -0.383105 5.11086
rclavicle 7.71285e-014 -1.23246e-014
rhumerus -37.9956 -17.1285 -70.6843
rradius 37.7428
rwrist -16.0377
rhand -10.838 17.108
rfingers 7.12502
rthumb 15.1765 -12.3155
lclavicle 7.71285e-014 -1.23246e-014
lhumerus -28.3 20.0632 79.11
lradius 31.5813
lwrist -4.32827
lhand -2.79029 31.5199
lfingers 7.12502
lthumb 22.9152 60.1782
rfemur -28.653 7.76237 8.48016
rtibia 51.5092
rfoot -13.9865 -0.575985
rtoes 7.98239
lfemur -18.2874 9.43119 -27.9393
ltibia 40.3327
lfoot -23.9662 14.3543
ltoes 0.271361
167
root 14.0636 17.781 -41.1794 9.06013 -45.7037 -1.28186
lowerback 7.01286 -1.07468 -8.18188
upperback 0.258905 -2.01368 2.13039
thorax -3.31309 -0.863833 7.04842
lowerneck -12.7869 -1.09089 -12.3178
upperneck 18.5113 -0.744745 8.77686
head 7.8839 -0.40745 4.91636
rclavicle 2.82523e-014 -2.10712e-014
rhumerus -37.9555 -17.1938 -70.8519
rradius 37.9979
rwrist -16.0041
rhand -11.0802 17.1953
rfingers 7.12502
rthumb 14.9432 -12.2456
lclavicle 2.82523e-014 -2.10712e-014
lhumerus -28.1233 19.8727 79.2362
lradius 31.7472
lwrist -3.99793
lhand -2.66572 31.4257
lfingers 7.12502
lthumb 23.0348 60.0692
rfemur -28.7476 7.49997 8.71669
rtibia 51.6241
rfoot -14.0317 -0.401833
rtoes 7.67361
lfemur -18.1808 9.35258 -27.8568
ltibia 40.3708
lfoot -24.322 14.4689
ltoes 1.43477
